<?xml version="1.0" encoding="utf-8"?>
<!-- Generator: Adobe Illustrator 17.0.0, SVG Export Plug-In . SVG Version: 6.00 Build 0)  -->
<!DOCTYPE svg PUBLIC "-//W3C//DTD SVG 1.1//EN" "http://www.w3.org/Graphics/SVG/1.1/DTD/svg11.dtd">
<svg version="1.1" id="Layer_1" xmlns="http://www.w3.org/2000/svg" xmlns:xlink="http://www.w3.org/1999/xlink" x="0px" y="0px"
	 width="248px" height="56px" viewBox="0 0 248 56" enable-background="new 0 0 248 56" xml:space="preserve">
<polygon fill="#C60D02" points="247.448,18.469 239.948,18.438 239.948,32.906 238.979,32.898 238.979,32.889 237.292,32.875 
	237.292,18.469 229.375,18.458 229.385,32.875 226.823,32.891 226.833,18.469 219.417,18.458 219.354,38.771 238.979,38.757 
	238.979,38.756 247.448,38.75 "/>
<path fill="#C60D02" d="M189.417,38.771l0.063-12.708h18.438l-0.031-2.125h-18.469c0,0-0.125-3.032,3.688-5.5l22.188,0.031
	L215.26,38.75l-7.344,0.021l0.031-7.302l-11.031-0.031v7.333H189.417z"/>
<polygon fill="#C60D02" points="159.792,38.771 159.771,18.458 167.542,18.458 172.792,23.958 178.417,18.458 185.792,18.469 
	185.792,38.771 178.385,38.75 178.385,26 172.823,31.969 167.51,25.938 167.542,38.771 "/>
<polygon fill="#C60D02" points="129.417,38.771 129.396,18.458 137.167,18.458 142.417,23.958 148.042,18.458 155.417,18.469 
	155.417,38.771 148.01,38.75 148.01,26 142.448,31.969 137.135,25.938 137.167,38.771 "/>
<polygon fill="#C60D02" points="102.396,18.469 125.323,18.469 125.323,23.958 102.417,23.958 "/>
<polygon fill="#C60D02" points="102.417,38.771 102.417,26.063 119.354,26.031 119.323,31.438 109.479,31.469 109.448,33 
	125.323,33.063 125.323,38.75 "/>
<polyline fill="#C60D02" points="16.167,40.75 25,40.75 29.437,33 30.354,40.75 31.146,40.75 40.021,31.042 35.896,40.75 
	42.146,40.75 54.792,15.083 48.375,15.083 39.062,21.813 34,18.938 25.905,18.688 22,25.563 16.167,40.75 "/>
<path fill="#B3B3B3" d="M11.083,40.75l11.5-25.667h12.75c0,0,13.167,8.878,0,16.689h-8.604L28.792,27h4c0,0,6-2.938,0.063-6.938
	L27.604,20l-9.188,20.75H11.083z"/>
<path fill="#A7A7A7" d="M4.996,41.487c-0.171,0.192,11.477,10.951,26.488,9.344c7.35-0.787,25.059-5.096,33.138-22.391l-8.047-0.044
	c0,0-18.994,32.546-48.872,13.036L4.996,41.487z"/>
<path fill="#A7A7A7" d="M59.919,14.61c0.169-0.193-11.54-10.884-26.542-9.191C26.033,6.248,8.349,10.659,0.369,28l8.047-0.003
	c0,0,18.807-32.655,48.796-13.318L59.919,14.61z"/>
<polygon fill="#A7A7A7" points="6.535,37.096 3.462,38.871 0.388,37.096 0.388,33.547 3.461,31.772 6.535,33.547 "/>
<polygon fill="#A7A7A7" points="64.039,20.754 63.096,19.129 61.237,20.191 61.237,18.063 59.347,18.063 59.347,20.18 
	57.503,19.113 56.55,20.732 58.407,21.807 56.544,22.871 57.487,24.496 59.347,23.434 59.347,25.563 61.237,25.563 61.237,23.445 
	63.08,24.512 64.033,22.893 62.176,21.818 "/>
<path fill="#C60D02" d="M73.458,38.75V18.469h22.458c0,0,3.5,1.385,3.5,5.49H80.792V26h18.625c0,0-0.5,5.469-3.438,5.469H80.792
	v7.281H73.458z"/>
</svg>
